/* XPM */
static char * IEC_AND_xpm[] = {
"26 20 3 1",
" 	c None",
".	c #000000",
"+	c #FFFFFF",
".................+++++++++",
".++++++++++++++++...++++++",
".+++++++++++++++++++..++++",
".+++++++++++++++++++++.+++",
".++++++++++++++++++++++.++",
".++++++++++++++++++++++.++",
".+++++++++++++++++++++++.+",
".+++++++++++++++++++++++.+",
".+++++++++++++++++++++++.+",
".++++++++++++++++++++++++.",
".++++++++++++++++++++++++.",
".+++++++++++++++++++++++.+",
".+++++++++++++++++++++++.+",
".+++++++++++++++++++++++.+",
".++++++++++++++++++++++.++",
".++++++++++++++++++++++.++",
".+++++++++++++++++++++.+++",
".+++++++++++++++++++..++++",
".++++++++++++++++...++++++",
".................+++++++++"};
