/* XPM */
static char * MidHuge_xpm[] = {
"61 10 5 1",
" 	c None",
".	c #FFFFFF",
"+	c #000000",
"@	c #595D59",
"#	c #969696",
"....+@.###############################################.@+....",
"....+@.###############################################.@+....",
"....+@.###############################################.@+....",
"....+@.###############################################.@+....",
"....+@.###############################################.@+....",
"....+@.###############################################.@+....",
"....+@.###############################################.@+....",
"....+@.###############################################.@+....",
"....+@.###############################################.@+....",
"....+@.###############################################.@+...."};
