/* XPM */
static char * OR_xpm[] = {
"26 20 13 1",
" 	c None",
".	c #999999",
"+	c #888888",
"@	c #222222",
"#	c #666666",
"$	c #777777",
"%	c #555555",
"&	c #444444",
"*	c #000000",
"=	c #111111",
"-	c #333333",
";	c #5A5A5A",
">	c #272727",
"..........................",
"..........................",
"..........................",
"..........................",
"...................+@#....",
".....$%............&*#....",
".....#*=-$.......#-**#....",
"......$-=*&+.....--@*#....",
".........%=*@#+....#*#....",
"............**#....#*#....",
".........$&-=-$....#*#....",
"........%=*&$......#*#....",
".....$@**&+........#*#....",
".....#@$...........#*#....",
".....+###;;&&&#....#*#....",
".....$--->>===-....#*#....",
"...................#*#....",
"............... ..........",
"..........................",
".........................."};
