/* XPM */
static char * OSZ_xpm[] = {
"26 20 3 1",
" 	c None",
".	c #969696",
"+	c #000000",
"..........................",
"..........................",
"..........................",
"..........................",
"..........................",
"..........................",
"..+++++++.....+++++++.....",
"..+.....+.....+.....+.....",
"..+.....+.....+.....+.....",
"..+.....+.....+.....+.....",
"..+.....+.....+.....+.....",
"..+.....+.....+.....+.....",
"+++.....+++++++.....++++++",
"..........................",
"..........................",
"..........................",
"..........................",
"..........................",
"..........................",
".........................."};
