/* XPM */
static char * pxLED1red_xpm[] = {
"23 27 4 1",
" 	c None",
".	c #FFFFFF",
"+	c #000000",
"@	c #FF0000",
"....+++++++++++++++++++",
"....+@@@@@@@@@@@@@@@@@+",
"....+@@@@@@@@@@@@@@@@@+",
"....+@@@@@@@@@@@@@@@@@+",
"....+@@@@@@@@@@@@@@@@@+",
"....+@@@@@@@@@@@@@@@@@+",
"....+@@@@@@@@@@@@@@@@@+",
"....+@@@@@@@@@@@@@@@@@+",
"....+@@@@@@@@@@@@@@@@@+",
"....+@@@@@@@@@@@@@@@@@+",
"....+@@@@@@@@@@@@@@@@@+",
"....+@@@@@@@@@@@@@@@@@+",
"....+@@@@@@@@@@@@@@@@@+",
"....+@@@@@@@@@@@@@@@@@+",
"....+@@@@@@@@@@@@@@@@@+",
"....+@@@@@@@@@@@@@@@@@+",
"....+@@@@@@@@@@@@@@@@@+",
"....+@@@@@@@@@@@@@@@@@+",
"....+@@@@@@@@@@@@@@@@@+",
"....+@@@@@@@@@@@@@@@@@+",
"....+@@@@@@@@@@@@@@@@@+",
"....+@@@@@@@@@@@@@@@@@+",
"....+@@@@@@@@@@@@@@@@@+",
"....+@@@@@@@@@@@@@@@@@+",
"....+@@@@@@@@@@@@@@@@@+",
"....+@@@@@@@@@@@@@@@@@+",
"....+++++++++++++++++++"};
