/* XPM */
static char * pxOUT_xpm[] = {
"41 11 5 1",
" 	c None",
".	c #FFFFFF",
"+	c #000000",
"@	c #595D59",
"#	c #CCCCCC",
"....++++++++++++++++++++++++++++++++.....",
"....+@.#############################+....",
"....+@.##############################+...",
"....+@.###############################+..",
"....+@.################################+.",
"....+@.#################################+",
"....+@.################################+.",
"....+@.###############################+..",
"....+@.##############################+...",
"....+@.#############################+....",
"....++++++++++++++++++++++++++++++++....."};
