/* XPM */
static char * pxRSC_xpm[] = {
"41 47 14 1",
" 	c None",
".	c #FFFFFF",
"+	c #000000",
"@	c #595D59",
"#	c #969696",
"$	c #757575",
"%	c #323232",
"&	c #858585",
"*	c #535353",
"=	c #646464",
"-	c #999999",
";	c #434343",
">	c #111111",
",	c #212121",
"....+++++++++++++++++++++++++++++++++....",
"....+@.###########################.@+....",
"....+@.###########################.@+....",
"....+@.#$%$#&*=*#########-------##.@+....",
"....+@.##%=#;=#*#########--------#.@+....",
"....+@.##+##*>=##########--------#.@+....",
"....+@.##>###$>$##########---#---#.@+....",
"....+@.#=%##%#%$##########------##.@+....",
"....+@.&*;&#%==###########-#----##.@+....",
"....+@.#######################---#.@+....",
"....+@.###########################.@+....",
"....+@.###########################.@+....",
"....+@.###########################.@+....",
"....+@.###########################.@+....",
"....+@.###########################.@+....",
"....+@.###########################.@+....",
"....+@.###########################.@+....",
"....+@.###########################.@+....",
"....+@.###########################.@+....",
"....+@.###########################.@+....",
"....+@.##&;=;#$%$#################.@+....",
"....+@.#&,&#*##%=#################.@+....",
"....+@.#;;#####+##################.@+....",
"....+@.#%=#####>##+++##+++##+++#-++++....",
"....+@.#*;#$=#=%##################.@+....",
"....+@.##***&&*;&#################.@+....",
"....+@.###########################.@+....",
"....+@.###########################.@+....",
"....+@.###########################.@+....",
"....+@.###########################.@+....",
"....+@.###########################.@+....",
"....+@.###########################.@+....",
"....+@.###########################.@+....",
"....+@.###########################.@+....",
"....+@.###########################.@+....",
"....+@.###########################.@+....",
"....+@.###########################.@+....",
"....+@.###########################.@+....",
"....+@.#$%$#$%=;##################.@+....",
"....+@.##%=#$,#%=#################.@+....",
"....+@.##+##=%&,&#################.@+....",
"....+@.##>##%;;=##################.@+....",
"....+@.#=%##%==,##################.@+....",
"....+@.&*;&$%$#;$#################.@+....",
"....+@.###########################.@+....",
"....+@.###########################.@+....",
"....+++++++++++++++++++++++++++++++++...."};
