/* XPM */
static char * pxSS_xpm[] = {
"26 37 4 1",
" 	c None",
".	c #FFFFFF",
"+	c #000000",
"@	c #666666",
"....++++++++++++++++++++++",
"....+@@@@@@@@@@@@@@@@@@@@+",
"....+@@@@@@@@@@@@@@@@@@@@+",
"....+@@@@@@@@@@@@@@@@@@@@+",
"....+@@@@@@@@@@@@@@@@@@@@+",
"....+@@@@@@@@@@@@@@@@@@@@+",
"....+@@@@@@@@@@@@@@@@@@@@+",
"....+@@@@@@@@@@@@@@@@@@@@+",
"....+@@@@@@@@@@@@@@@@@@@@+",
"....+@@@@@@@@@@@@@@@@@@@@+",
"....+@@@@@@@@@@@@@@@@@@@@+",
"....+@@@@@@@@@@@@@@@@@@@@+",
"....+@@@@@@@@@@@@@@@@@@@@+",
"....+@@@@@@@@@@@@@@@@@@@@+",
"....+@@@@@@@@@@@@@@@@@@@@+",
"....+@@@@@@@@@@@@@@@@@@@@+",
"....+@@@@@@@@@@@@@@@@@@@@+",
"....+@@@@@@@@@@@@@@@@@@@@+",
"....+@@@@@@@@@@@@@@@@@@@@+",
"....+@@@@@@@@@@@@@@@@@@@@+",
"....+@@@@@@@@@@@@@@@@@@@@+",
"....+@@@@@@@@@@@@@@@@@@@@+",
"....+@@@@@@@@@@@@@@@@@@@@+",
"....+@@@@@@@@@@@@@@@@@@@@+",
"....+@@@@@@@@@@@@@@@@@@@@+",
"....+@@@@@@@@@@@@@@@@@@@@+",
"....+@@@@@@@@@@@@@@@@@@@@+",
"....+@@@@@@@@@@@@@@@@@@@@+",
"....+@@@@@@@@@@@@@@@@@@@@+",
"....+@@@@@@@@@@@@@@@@@@@@+",
"....+@@@@@@@@@@@@@@@@@@@@+",
"....+@@@@@@@@@@@@@@@@@@@@+",
"....+@@@@@@@@@@@@@@@@@@@@+",
"....+@@@@@@@@@@@@@@@@@@@@+",
"....+@@@@@@@@@@@@@@@@@@@@+",
"....+@@@@@@@@@@@@@@@@@@@@+",
"....++++++++++++++++++++++"};
