/* XPM */
static char*pxSSsa[]={
"11 21 4 1",
"a c #00ff00",
"# c #00ff33",
"b c #000000",
". c #666666",
".#########.",
"#.#######.a",
"##.#####.aa",
"###.....aaa",
"###.....aaa",
"###.....aaa",
"###.....aaa",
"###.....aaa",
"##.......aa",
"#.aaaaaaa.a",
".aaaaaaaaa.",
"#.aaaaaaa.#",
"##.......##",
"###.....###",
"###.....###",
"###.....###",
"###.....###",
"###.....###",
"##.bbbbb.##",
"#.bbbbbbb.#",
".bbbbbbbbb."};
