/* XPM */
static char * pxSSs15_xpm[] = {
"11 21 5 1",
" 	c None",
".	c #666666",
"+	c #00FF00",
"@	c #333333",
"#	c #303030",
".+++++++++.",
"+.+++++++.@",
"++.+++++.@@",
"+++.....@@@",
"+++.....@@@",
"+++.....@@@",
"+++.....@@@",
"+++.....@@@",
"+++......@@",
"+.+++++++.@",
".+++++++++.",
"+.+++++++.@",
"++.......@@",
"+++.....@@@",
"+++.....@@@",
"+++.....@@@",
"+++.....@@@",
"+++.....@@@",
"++.#####.@@",
"+.#######.@",
".#########."};
