/* XPM */
static char * pxSSsoff_xpm[] = {
"11 21 3 1",
" 	c None",
".	c #666666",
"+	c #00380A",
".+++++++++.",
"+.+++++++.+",
"++.+++++.++",
"+++.....+++",
"+++.....+++",
"+++.....+++",
"+++.....+++",
"+++.....+++",
"++.......++",
"+.+++++++.+",
".+++++++++.",
"+.+++++++.+",
"++.......++",
"+++.....+++",
"+++.....+++",
"+++.....+++",
"+++.....+++",
"+++.....+++",
"++.+++++.++",
"+.+++++++.+",
".+++++++++."};
