/* XPM */
static char * psSSs6_xpm[] = {
"11 21 5 1",
" 	c None",
".	c #666666",
"+	c #00FF33",
"@	c #00380A",
"#	c #00FF00",
".+++++++++.",
"+.+++++++.@",
"++.+++++.@@",
"+++.....@@@",
"+++.....@@@",
"+++.....@@@",
"+++.....@@@",
"+++.....@@@",
"++.......@@",
"+.#######.@",
".#########.",
"+.#######.+",
"++.......++",
"+++.....+++",
"+++.....+++",
"+++.....+++",
"+++.....+++",
"+++.....+++",
"++.+++++.++",
"+.+++++++.+",
".+++++++++."};
