/* XPM */
static char * psSSs3_xpm[] = {
"11 21 4 1",
" 	c None",
".	c #666666",
"+	c #00FF00",
"@	c #00380A",
".+++++++++.",
"@.+++++++.+",
"@@.+++++.++",
"@@@.....+++",
"@@@.....+++",
"@@@.....+++",
"@@@.....+++",
"@@@.....+++",
"@@.......++",
"@.+++++++.+",
".+++++++++.",
"@.+++++++.+",
"@@.......++",
"@@@.....+++",
"@@@.....+++",
"@@@.....+++",
"@@@.....+++",
"@@@.....+++",
"@@.+++++.++",
"@.+++++++.+",
".+++++++++."};
