/* XPM */
static char * psSSs0_xpm[] = {
"11 21 4 1",
" 	c None",
".	c #666666",
"+	c #00FF33",
"@	c #00380A",
".+++++++++.",
"+.+++++++.+",
"++.+++++.++",
"+++.....+++",
"+++.....+++",
"+++.....+++",
"+++.....+++",
"+++.....+++",
"++.......++",
"+.@@@@@@@.+",
".@@@@@@@@@.",
"+.@@@@@@@.+",
"++.......++",
"+++.....+++",
"+++.....+++",
"+++.....+++",
"+++.....+++",
"+++.....+++",
"++.+++++.++",
"+.+++++++.+",
".+++++++++."};
