/* XPM */
static char * pxSwitchs0_xpm[] = {
"29 26 7 1",
" 	c None",
".	c #000000",
"+	c #FFFFFF",
"@	c #0066FF",
"#	c #00007F",
"$	c #0000FF",
"%	c #7F0000",
".........................++++",
".@@@@@@@@@@@@@@@@@@@@@@#.++++",
".@@@@@@@@@@@@@@@@@@@@@##.++++",
".@@$$$$$$$$$$$$$$$$$$$##.++++",
".@@$$$$$$$$$$$$$$%%$$$##.++++",
".@@$$$$$$$$$$$$$%%%%$$##.++++",
".@@$$$$$$$$$$$$%%%%%%$##.++++",
".@@$$$$$$$$$$$$%%%%%%$##.++++",
".@@$$$$$$$$$$$$$%%%%$$##.++++",
".@@$$$$$$$$$$$$$$%%$$$##.++++",
".@@$$$$$$$$$$$$$$$$$$$##.++++",
".@@$$$$$$$$$$$$$$$$$$$##.++++",
".@@$$$$$$$$$$$$$$$$$$$##.++++",
".@@$$$$$$$$$$$$$$$$$$$##.++++",
".@@$$$$$$$$$$$$$$$$$$$##.++++",
".@@$$$$$$$$$$$$$$$$$$$##.++++",
".@@$$$$$$$$$$$$$$$$$$$##.++++",
".@@$$$$$$$$$$$$$$$$$$$##.++++",
".@@$$$$$$$$$$$$$$$$$$$##.++++",
".@@$$$$$$$$$$$$$$$$$$$##.++++",
".@@$$$$$$$$$$$$$$$$$$$##.++++",
".@@$$$$$$$$$$$$$$$$$$$##.++++",
".@@$$$$$$$$$$$$$$$$$$$##.++++",
".@######################.++++",
".#######################.++++",
".........................++++"};
