/* XPM */
static char * pxTFF_xpm[] = {
"41 27 14 1",
" 	c None",
".	c #FFFFFF",
"+	c #000000",
"@	c #595D59",
"#	c #969696",
"$	c #999999",
"%	c #666666",
"&	c #333333",
"*	c #CCCCCC",
"=	c #222222",
"-	c #111111",
";	c #444444",
">	c #555555",
",	c #777777",
"....+++++++++++++++++++++++++++++++++....",
"....+@.###########################.@+....",
"....+@.###########################.@+....",
"....+@.###########################.@+....",
"....+@.###########################.@+....",
"....+@.###########################.@+....",
"....+@.###########################.@+....",
"....+@.###########################.@+....",
"....+@.#################$$########.@+....",
"....+@.################$$$$##$####.@+....",
"....+@.######$#$$$####$$$$$$$$$###.@+....",
"....+++#####%&&&&$$$$$$$$$$$$$$###.@+....",
"....+**++###&$=$-$$$$$$$$$$$$#####.@+....",
"....+****++#;$&$>$#$$#$$$$$$######.@+....",
"....+**++###$,;$$#$$$#$$$$$$$#####.@+....",
"....+++#####$%%$$$$$#$$$$$$$$#####.@+....",
"....+@.#####>&&,$$$$$$$$$$$$$#####.@+....",
"....+@.#####$##$$$$$$$$$$$$$$#####.@+....",
"....+@.##########$$$$$$$$$$$$$$###.@+....",
"....+@.###########################.@+....",
"....+@.###########################.@+....",
"....+@.###########################.@+....",
"....+@.###########################.@+....",
"....+@.###########################.@+....",
"....+@.###########################.@+....",
"....+@.###########################.@+....",
"....+++++++++++++++++++++++++++++++++...."};
