/* XPM */
static char * TopBlank_xpm[] = {
"41 3 3 1",
" 	c None",
".	c #FFFFFF",
"+	c #B2B2B2",
"....+++++++++++++++++++++++++++++++++....",
"....+...............................+....",
"....+...............................+...."};
