/* XPM */
static char * TopHuge_xpm[] = {
"61 3 5 1",
" 	c None",
".	c #FFFFFF",
"+	c #000000",
"@	c #595D59",
"#	c #969696",
"....+++++++++++++++++++++++++++++++++++++++++++++++++++++....",
"....+@.###############################################.@+....",
"....+@.###############################################.@+...."};
